<svg width="18" height="19" viewBox="0 0 18 19" fill="none" xmlns="http://www.w3.org/2000/svg">
<circle cx="8.68509" cy="5.95852" r="3.58352" stroke="#BABABA" stroke-linecap="round" stroke-linejoin="round"/>
<path fill-rule="evenodd" clip-rule="evenodd" d="M3.00001 14.5267C2.99905 14.2747 3.05539 14.0259 3.16477 13.799C3.50802 13.1125 4.47598 12.7486 5.27919 12.5839C5.85846 12.4602 6.44573 12.3777 7.03663 12.3367C8.13063 12.2406 9.23095 12.2406 10.325 12.3367C10.9158 12.3781 11.503 12.4607 12.0824 12.5839C12.8856 12.7486 13.8536 13.0781 14.1968 13.799C14.4168 14.2616 14.4168 14.7986 14.1968 15.2612C13.8536 15.982 12.8856 16.3116 12.0824 16.4694C11.5038 16.5982 10.9163 16.6831 10.325 16.7235C9.43453 16.7989 8.53994 16.8127 7.64761 16.7646C7.44166 16.7646 7.24258 16.7646 7.03663 16.7235C6.44747 16.6836 5.86224 16.5987 5.28605 16.4694C4.47598 16.3116 3.51489 15.982 3.16477 15.2612C3.05595 15.0316 2.99966 14.7807 3.00001 14.5267Z" stroke="#BABABA" stroke-linecap="round" stroke-linejoin="round"/>
</svg>
