<svg width="19" height="19" viewBox="0 0 19 19" fill="none" xmlns="http://www.w3.org/2000/svg">
<circle cx="9.18509" cy="5.95852" r="3.58352" fill="#00BE5D" stroke="#00BE5D" stroke-linecap="round" stroke-linejoin="round"/>
<path fill-rule="evenodd" clip-rule="evenodd" d="M3.50001 14.5257C3.49905 14.2738 3.55539 14.0249 3.66477 13.798C4.00802 13.1115 4.97598 12.7476 5.77919 12.5829C6.35846 12.4593 6.94573 12.3767 7.53663 12.3357C8.63063 12.2396 9.73095 12.2396 10.825 12.3357C11.4158 12.3772 12.003 12.4597 12.5824 12.5829C13.3856 12.7476 14.3536 13.0772 14.6968 13.798C14.9168 14.2606 14.9168 14.7976 14.6968 15.2602C14.3536 15.9811 13.3856 16.3106 12.5824 16.4685C12.0038 16.5972 11.4163 16.6821 10.825 16.7225C9.93453 16.798 9.03994 16.8117 8.14761 16.7637C7.94166 16.7637 7.74258 16.7637 7.53663 16.7225C6.94747 16.6826 6.36224 16.5977 5.78605 16.4685C4.97598 16.3106 4.01489 15.9811 3.66477 15.2602C3.55595 15.0307 3.49966 14.7797 3.50001 14.5257Z" fill="#00BE5D" stroke="#00BE5D" stroke-linecap="round" stroke-linejoin="round"/>
</svg>
