<svg width="19" height="19" viewBox="0 0 19 19" fill="none" xmlns="http://www.w3.org/2000/svg">
<path d="M7.36791 16.0786V13.7785C7.3679 13.1935 7.84484 12.7181 8.43576 12.7142H10.6003C11.1941 12.7142 11.6754 13.1907 11.6754 13.7785V13.7785V16.0857C11.6752 16.5824 12.0757 16.9884 12.5773 17H14.0203C15.4588 17 16.625 15.8455 16.625 14.4214V14.4214V7.87838C16.6173 7.31812 16.3516 6.79201 15.9035 6.44977L10.9683 2.51398C10.1037 1.82867 8.87465 1.82867 8.01006 2.51398L3.09652 6.45692C2.64669 6.79777 2.38054 7.32475 2.375 7.88552V14.4214C2.375 15.8455 3.54116 17 4.97968 17H6.42272C6.93677 17 7.35348 16.5875 7.35348 16.0786V16.0786" stroke="#BABABA" stroke-linecap="round" stroke-linejoin="round"/>
</svg>
