<svg width="19" height="18" viewBox="0 0 19 18" fill="none" xmlns="http://www.w3.org/2000/svg">
<path fill-rule="evenodd" clip-rule="evenodd" d="M7.36791 15.5786V13.2785C7.3679 12.6935 7.84484 12.2181 8.43576 12.2142H10.6003C11.1941 12.2142 11.6754 12.6907 11.6754 13.2785V13.2785V15.5857C11.6752 16.0824 12.0757 16.4884 12.5773 16.5H14.0203C15.4588 16.5 16.625 15.3455 16.625 13.9214V13.9214V7.37838C16.6173 6.81812 16.3516 6.29201 15.9035 5.94977L10.9683 2.01398C10.1037 1.32867 8.87465 1.32867 8.01006 2.01398L3.09652 5.95692C2.64669 6.29777 2.38054 6.82475 2.375 7.38552V13.9214C2.375 15.3455 3.54116 16.5 4.97968 16.5H6.42272C6.93677 16.5 7.35348 16.0875 7.35348 15.5786V15.5786" fill="#00BA5B"/>
<path d="M7.36791 15.5786V13.2785C7.3679 12.6935 7.84484 12.2181 8.43576 12.2142H10.6003C11.1941 12.2142 11.6754 12.6907 11.6754 13.2785V13.2785V15.5857C11.6752 16.0824 12.0757 16.4884 12.5773 16.5H14.0203C15.4588 16.5 16.625 15.3455 16.625 13.9214V13.9214V7.37838C16.6173 6.81812 16.3516 6.29201 15.9035 5.94977L10.9683 2.01398C10.1037 1.32867 8.87465 1.32867 8.01006 2.01398L3.09652 5.95692C2.64669 6.29777 2.38054 6.82475 2.375 7.38552V13.9214C2.375 15.3455 3.54116 16.5 4.97968 16.5H6.42272C6.93677 16.5 7.35348 16.0875 7.35348 15.5786V15.5786" stroke="#00BA5B" stroke-linecap="round" stroke-linejoin="round"/>
</svg>
