<svg width="18" height="19" viewBox="0 0 18 19" fill="none" xmlns="http://www.w3.org/2000/svg">
<g clip-path="url(#clip0_560_33291)">
<path fill-rule="evenodd" clip-rule="evenodd" d="M8.32498 1.4375C5.77832 1.4375 3.80793 3.66952 4.1238 6.19652L4.18332 6.67266C4.27041 7.36937 4.01592 8.06529 3.49991 8.54146C2.43065 9.52816 2.13358 11.0986 2.76856 12.4077L2.84608 12.5675C3.43795 13.7877 4.67493 14.5625 6.0311 14.5625H12.1967C13.3665 14.5625 14.4552 13.9649 15.0833 12.978C15.9699 11.5849 15.7351 9.75741 14.5251 8.63372L14.4922 8.60315C13.9383 8.08875 13.6656 7.33934 13.7593 6.58926L13.8078 6.20156C14.124 3.67188 12.1515 1.4375 9.60217 1.4375H8.32498ZM5.24012 6.05698C5.00817 4.20144 6.455 2.5625 8.32498 2.5625H9.60217C11.4748 2.5625 12.9238 4.2038 12.6915 6.06202L12.643 6.44972C12.5044 7.55881 12.9076 8.66689 13.7266 9.4275L13.7595 9.45807C14.5717 10.2123 14.7293 11.4389 14.1342 12.374C13.7126 13.0364 12.9819 13.4375 12.1967 13.4375H6.0311C5.10592 13.4375 4.26206 12.9089 3.85828 12.0765L3.78077 11.9167C3.36221 11.0538 3.55803 10.0186 4.26284 9.36823C5.04567 8.64585 5.43176 7.59009 5.29963 6.53312L5.24012 6.05698Z" fill="#BABABA"/>
<path d="M7.33754 15.9125C7.15115 15.664 6.79857 15.6136 6.55005 15.8C6.30152 15.9864 6.25115 16.339 6.43755 16.5875L6.66255 16.8875C7.90005 18.5375 10.375 18.5375 11.6125 16.8875L11.8375 16.5875C12.0239 16.339 11.9736 15.9864 11.725 15.8C11.4765 15.6136 11.1239 15.664 10.9375 15.9125L10.7125 16.2125C9.92505 17.2625 8.35005 17.2625 7.56254 16.2125L7.33754 15.9125Z" fill="#BABABA"/>
</g>
<defs>
<clipPath id="clip0_560_33291">
<rect width="18" height="18" fill="white" transform="translate(0 0.5)"/>
</clipPath>
</defs>
</svg>
