<svg width="18" height="19" viewBox="0 0 18 19" fill="none" xmlns="http://www.w3.org/2000/svg">
<path d="M10.5252 2.9375C11.554 2.9375 12.3605 2.93749 13.0088 2.99046C13.6689 3.04439 14.2142 3.15603 14.7078 3.40753C15.5193 3.82099 16.179 4.48072 16.5925 5.29217C16.8941 5.88407 16.9982 6.56175 17.0373 7.4375H0.962655C1.00179 6.56175 1.10594 5.88407 1.40753 5.29217C1.82099 4.48072 2.48072 3.82099 3.29217 3.40753C3.78576 3.15603 4.3311 3.04439 4.9912 2.99046C5.63946 2.93749 6.44604 2.9375 7.47483 2.9375H10.5252Z" fill="#00BE5D"/>
<path fill-rule="evenodd" clip-rule="evenodd" d="M0.939205 8.5625C0.9375 8.85055 0.9375 9.16098 0.9375 9.49566V9.52517C0.937497 10.554 0.937494 11.3605 0.990459 12.0088C1.04439 12.6689 1.15603 13.2142 1.40753 13.7078C1.82099 14.5193 2.48072 15.179 3.29217 15.5925C3.78576 15.844 4.3311 15.9556 4.9912 16.0095C5.63943 16.0625 6.44596 16.0625 7.47467 16.0625H10.5252C11.5539 16.0625 12.3606 16.0625 13.0088 16.0095C13.6689 15.9556 14.2142 15.844 14.7078 15.5925C15.5193 15.179 16.179 14.5193 16.5925 13.7078C16.844 13.2142 16.9556 12.6689 17.0095 12.0088C17.0625 11.3606 17.0625 10.554 17.0625 9.52533V9.49565C17.0625 9.16097 17.0625 8.85055 17.0608 8.5625H0.939205ZM3.9375 13.25C3.9375 12.9393 4.18934 12.6875 4.5 12.6875H6C6.31066 12.6875 6.5625 12.9393 6.5625 13.25C6.5625 13.5607 6.31066 13.8125 6 13.8125H4.5C4.18934 13.8125 3.9375 13.5607 3.9375 13.25ZM7.6875 13.25C7.6875 12.9393 7.93934 12.6875 8.25 12.6875H11.25C11.5607 12.6875 11.8125 12.9393 11.8125 13.25C11.8125 13.5607 11.5607 13.8125 11.25 13.8125H8.25C7.93934 13.8125 7.6875 13.5607 7.6875 13.25Z" fill="#00BE5D"/>
</svg>
